<svg id="Layer_1" version="1.1" width="260" height="234.176" xmlns="http://www.w3.org/2000/svg"><defs id="defs4"><style id="style2">.cls-1,.cls-2{fill-rule:evenodd}.cls-1,.cls-2,.cls-3,.cls-4,.cls-5,.cls-6{stroke-width:0}.cls-1,.cls-4{fill:#b27af4}.cls-2,.cls-6{fill:#f5f5f5}.cls-3{fill:#f9f9f9}.cls-5{fill:#fbbe22}</style></defs><g id="R_root" transform="translate(-13.931 -7.847) scale(1.10216)"><path class="cls-6" d="M237.41 133.43h-20.8c-.37 0-.73.02-1.09.06h-1.88c-3.25 0-6.13 1.46-8.03 3.77l-.42-24.48-.02-1.04c-.18.04-.34.06-.52.09s-.34.05-.52.07l.02 1.04.44 25.81.03 1.16.02 1.46.05 2.63h2.58l.02-.5a9.296 9.296 0 0 1 8.24-8.98c.35-.05.72-.06 1.09-.06h20.8c.61 0 1.21.06 1.78.18 4.3.83 7.56 4.63 7.56 9.16v10.99c0 4.4-3.08 8.09-7.19 9.03-.56.13-1.13.21-1.73.23h-.36c-.45 0-.88-.03-1.31-.09-4.5-.64-7.97-4.52-7.97-9.18v-1.45c0-2.03-1.65-3.67-3.67-3.67h-19.76v.58l.02.52.12 6.76v.52l.02.36h1.53c.61 0 1.21.06 1.78.18 4.29.83 7.53 4.63 7.53 9.15v7.42c0 4.41-3.08 8.12-7.2 9.09-.57.14-1.15.21-1.74.24H205.36v.39l.02.53.4 23.57c.05 2.51-.91 4.88-2.67 6.68a9.372 9.372 0 0 1-4.54 2.57c-.58.14-1.19.22-1.8.24h-.38c-.45 0-.87-.03-1.3-.09-4.56-.63-8.09-4.53-8.09-9.24v-20.98c0-4.8 3.65-8.77 8.32-9.28h1.32v-.06h2.97l-.25-14.77h-10.22c-5.15 0-9.33-4.18-9.33-9.34v-17.94c0-3.77 2.67-6.92 6.21-7.68.46-.09.94-.15 1.43-.16h.21c.44 0 .87.04 1.29.11 2.63.43 4.83 2.19 5.88 4.56.25.56.44 1.15.55 1.76.08.45.13.93.13 1.41v3.54c0 .68.19 1.31.5 1.86.49.85 1.34 1.49 2.36 1.73l.65.14-.53-31.28-.02-1.05c-.18-.03-.35-.06-.52-.09-.18-.03-.35-.06-.52-.1-.66-.12-1.31-.27-1.94-.45-.18-.04-.35-.08-.53-.15-.18-.04-.35-.09-.52-.15l.02 1.09.33 19.63a8.857 8.857 0 0 0-7.13-3.6c-.56 0-1.1.06-1.63.16-.44-.06-.88-.1-1.34-.1-4.91 0-8.89 3.99-8.89 8.89v17.94c0 5.71 4.66 10.37 10.38 10.37h9.19l.21 12.66c-.13 0-.25.02-.37.04h-1.84c-5.72 0-10.38 4.65-10.38 10.37v20.98c0 5.71 4.68 10.37 10.43 10.37.58 0 1.15-.05 1.71-.14.42.06.83.08 1.26.08a10.4 10.4 0 0 0 7.46-3.13c1.96-2 3.01-4.64 2.97-7.42l-.4-23.45h.02c5.72 0 10.37-4.65 10.37-10.37v-7.42c0-5.71-4.65-10.37-10.37-10.37h-.5l-.11-6.6h15.73c1.46 0 2.63 1.18 2.63 2.63v1.45c0 5.69 4.63 10.31 10.31 10.31.58 0 1.13-.05 1.68-.14.42.06.85.08 1.29.08 5.69 0 10.31-4.63 10.31-10.31v-10.99c0-5.72-4.66-10.37-10.38-10.37z" id="path6"/><path class="cls-6" d="M234.96 157.38c.16.16.32.3.51.42s.38.23.58.32c.44.19.92.3 1.43.3 1.99 0 3.62-1.62 3.62-3.62v-10.99c0-2.03-1.65-3.67-3.68-3.67h-20.8c-.21 0-.43.02-.63.06-.49.08-.95.26-1.35.52-.23.15-.45.32-.64.52-.48.48-.82 1.1-.96 1.81-.03.14-.06.27-.06.41v.11l-.06.45h11.63c.59 0 1.18.06 1.74.17 4.31.82 7.59 4.62 7.59 9.17v1.45c0 1.01.42 1.93 1.09 2.59zm-20.85-14.4c.29-.91 1.05-1.58 1.99-1.75h18.36c1.46 0 2.63 1.18 2.63 2.63v10.99c0 .85-.41 1.6-1.05 2.08a2.554 2.554 0 0 1-1.13-2.13v-1.45c0-5.72-4.66-10.37-10.37-10.37z" id="path8"/><path class="cls-6" d="M189.86 140.33v-3.54c0-1.21-.98-2.19-2.19-2.19-.59 0-1.13.22-1.52.6a1.8 1.8 0 0 0-.32.42c-.11.15-.19.32-.24.49-.07.21-.11.45-.11.68v17.94c0 1.07.45 2.02 1.18 2.7.21.2.45.38.71.52.53.3 1.14.46 1.78.46h10.12l-.15-8.73-.48-.03c-4.92-.29-8.77-4.39-8.77-9.32zm-3.35 14.39v-10.7c1.34 3.59 4.63 6.26 8.62 6.68l.12 6.67h-6.1c-1.45 0-2.63-1.19-2.63-2.64z" id="path10"/><path class="cls-6" d="M195.73 184.56c-.49.07-.95.26-1.34.52-.24.14-.45.32-.66.52-.65.67-1.06 1.57-1.06 2.58v20.98c0 1.04.45 1.98 1.16 2.66.16.15.34.29.53.41.19.13.4.24.62.32a3.745 3.745 0 0 0 4.09-.84c.7-.71 1.08-1.64 1.06-2.62l-.42-24.59h-3.36c-.21 0-.42.02-.62.06zm-2.02 24.6v-20.98c0-1.23.85-2.28 2.01-2.56l.4 23.55c.02.7-.26 1.36-.76 1.87-.12.12-.25.23-.4.33a2.613 2.613 0 0 1-1.25-2.22z" id="path12"/><path class="cls-6" d="m205.05 165.69.19 11.48v.65l.02.59v.42h1.18c2.02 0 3.67-1.64 3.67-3.67v-7.42c0-2.02-1.65-3.67-3.67-3.67h-1.42v.41l.02.58v.63z" id="path14"/></g><g id="O_root" transform="translate(-13.931 -7.847) scale(1.10216)"><path class="cls-6" d="M149.67 194.58h8.48c5.45 0 9.89-4.43 9.89-9.89v-10.16c0-5.45-4.43-9.89-9.89-9.89h-6.62c-1.73 0-3.13-1.4-3.13-3.13v-2.98h6.23c5.45 0 9.89-4.44 9.89-9.89v-2.96c0-5.45-4.43-9.9-9.89-9.9h-16.86c-1.73 0-3.13-1.4-3.13-3.12v-23.02c-.17.03-.34.05-.52.06-.17.02-.34.04-.52.04v22.92c0 1.24.55 2.36 1.41 3.12.22.2.47.38.74.52.59.33 1.28.52 2.01.52h16.98c.57 0 1.11.06 1.65.18 4.03.83 7.07 4.41 7.07 8.68v2.96c0 4.27-3.04 7.84-7.07 8.67-.54.11-1.09.17-1.65.18h-7.39v4.02c0 1.25.55 2.37 1.43 3.13.22.2.46.37.72.52.59.33 1.28.52 2.01.52h6.75a8 8 0 0 1 1.64.18c4.03.83 7.07 4.41 7.07 8.67v10.16c0 4.27-3.04 7.84-7.07 8.67a9.8 9.8 0 0 1-1.64.18h-8.61c-.62 0-1.2.19-1.68.52a2.976 2.976 0 0 0-1.3 2.46c0 .73.27 1.41.72 1.93.17.2.36.38.58.52.48.32 1.06.52 1.68.52h8.61a8 8 0 0 1 1.64.18c4.03.83 7.07 4.41 7.07 8.67v.79c0 4.27-3.04 7.84-7.07 8.67a9.8 9.8 0 0 1-1.64.18h-57.65c-4.88 0-8.85-3.97-8.85-8.85v-5.18c0-4.88 3.97-8.85 8.85-8.85h2.56c2.29 0 4.16-1.86 4.16-4.16v-1.07c0-2.3-1.87-4.16-4.16-4.16h-2.56c-4.88 0-8.85-3.97-8.85-8.85v-3.66c0-4.88 3.97-8.85 8.85-8.85h10.67c2.29 0 4.16-1.86 4.16-4.16v-2.67h-5.95c-4.88 0-8.85-3.97-8.85-8.85v-2.96c0-4.69 3.65-8.53 8.26-8.84.19 0 .39-.02.58-.02h1.91c.57 0 1.11.06 1.65.18 4.03.83 7.07 4.41 7.07 8.68v7.11h22.54v-11.28h-4.91c-4.89 0-8.86-3.97-8.86-8.85v-23.13c-.17-.03-.34-.06-.52-.1-.17-.03-.34-.06-.52-.11-.24-.05-.49-.1-.73-.18a19.265 19.265 0 0 1-2.22-.75v24.27c0 5.44 4.43 9.89 9.89 9.89h3.87v9.2h-17.49v-6.08c0-5.45-4.43-9.9-9.89-9.9h-1.79c-.19 0-.39 0-.58.02-.19 0-.4-.02-.59-.02h-1.79c-5.45 0-9.89 4.44-9.89 9.9v2.96c0 5.44 4.43 9.89 9.89 9.89h4.92v1.63c0 1.73-1.4 3.13-3.13 3.13H97.64c-5.45 0-9.89 4.43-9.89 9.89v3.66c0 5.45 4.43 9.89 9.89 9.89h2.56c1.73 0 3.13 1.4 3.13 3.13v1.07c0 1.73-1.4 3.13-3.13 3.13h-2.56c-5.45 0-9.89 4.43-9.89 9.89v5.18c0 5.44 4.43 9.89 9.89 9.89h60.49c5.45 0 9.89-4.44 9.89-9.89v-.79c0-5.44-4.43-9.89-9.89-9.89h-8.48c-1.07 0-1.94-.86-1.94-1.93 0-1.07.87-1.94 1.94-1.94z" id="path17"/><path class="cls-6" d="M129.94 108.65c.4.06.81.09 1.22.11.18 0 .34.02.52.02h.48c.66 0 1.32-.04 1.97-.11.18 0 .34-.04.52-.06v-.48h-7.33c.19.06.37.1.56.14.68.18 1.36.3 2.07.38z" id="path19"/><path class="cls-6" d="M111.29 141.54h-1.79c-.19 0-.4.02-.58.05-.51.06-.99.23-1.43.47a4.2 4.2 0 0 0-.73.52c-.87.76-1.42 1.87-1.42 3.13v2.96c0 1.24.55 2.36 1.41 3.12.22.2.47.38.74.52.59.33 1.28.52 2.01.52h5.95v-7.11c0-2.3-1.87-4.16-4.16-4.16zm-1.79 10.24c-1.73 0-3.13-1.4-3.13-3.12v-2.96c0-1.52 1.09-2.8 2.54-3.07 1.44.28 2.53 1.55 2.53 3.07v6.08h-1.95z" id="path21"/><path class="cls-6" d="M149.67 188.86h8.48c2.3 0 4.16-1.87 4.16-4.16v-10.16c0-2.29-1.86-4.16-4.16-4.16h-6.62c-4.88 0-8.85-3.97-8.85-8.86v-4.02h-22.54v2.67c0 4.29-3.05 7.87-7.1 8.69-.54.1-1.09.16-1.65.17h-10.76c-.72 0-1.4.19-2 .51a4.2 4.2 0 0 0-.73.52c-.87.76-1.43 1.88-1.43 3.13v3.66c0 1.24.55 2.36 1.42 3.12.22.2.47.38.73.52.6.33 1.29.52 2.01.52h2.68c.57 0 1.11.06 1.65.18 4.03.83 7.07 4.41 7.07 8.68v1.07c0 4.27-3.04 7.84-7.07 8.67-.54.11-1.09.17-1.65.18h-2.68c-.72 0-1.41.19-2.01.52-.26.15-.5.32-.72.52-.87.76-1.43 1.88-1.43 3.13v5.18c0 1.24.55 2.36 1.42 3.12.22.2.47.38.73.52.6.33 1.29.52 2.01.52h57.52c2.3 0 4.16-1.86 4.16-4.16v-.79c0-2.29-1.86-4.16-4.16-4.16h-8.48c-4.23 0-7.67-3.44-7.67-7.66 0-4.22 3.44-7.66 7.67-7.66zm8.64 19.48v.79c0 1.72-1.4 3.12-3.12 3.12h-54.57c-1.73 0-3.13-1.4-3.13-3.12v-5.18c0-1.73 1.4-3.13 3.13-3.13h2.56c5.45 0 9.89-4.43 9.89-9.89v-1.07c0-5.45-4.43-9.9-9.89-9.9h-2.56c-1.73 0-3.13-1.4-3.13-3.12v-3.66c0-1.73 1.4-3.13 3.13-3.13h10.67c5.45 0 9.89-4.43 9.89-9.89v-1.63h17.49v2.98c0 5.45 4.43 9.89 9.89 9.89h6.63c1.72 0 3.12 1.4 3.12 3.13v10.16c0 1.73-1.4 3.13-3.12 3.13h-8.49c-4.8 0-8.7 3.9-8.7 8.7 0 4.8 3.9 8.7 8.7 8.7h8.49c1.72 0 3.12 1.4 3.12 3.12z" id="path23"/><path class="cls-6" d="M158.8 148.66v-2.96c0-2.3-1.86-4.16-4.16-4.16h-7.27v11.28h7.27c2.3 0 4.16-1.86 4.16-4.16zm-10.4-6.08h3.26c1.73 0 3.13 1.4 3.13 3.13v2.96c0 1.72-1.4 3.12-3.13 3.12h-3.26v-9.2z" id="path25"/></g><g id="T_root" transform="translate(-13.931 -7.847) scale(1.10216)"><path class="cls-6" d="M83.67 124.48h-1.12c-.6-.11-1.22-.17-1.85-.17h-8.62c-5.74 0-10.41 4.67-10.41 10.41v2.63H26.4c-.99-.36-1.7-1.33-1.7-2.45 0-1.45 1.17-2.62 2.61-2.62h25.73c5.73 0 10.41-4.67 10.41-10.41v-10.14c-.18.04-.34.06-.52.09s-.34.06-.52.07v9.97c0 4.68-3.45 8.58-7.95 9.27-.46.07-.94.11-1.42.11H27.31c-.55 0-1.08.12-1.54.34-.3.13-.57.31-.81.52-.8.67-1.3 1.67-1.3 2.79 0 .95.36 1.81.96 2.45.17.19.35.37.57.52.32.22.67.41 1.04.52.34.11.71.17 1.09.17H65.7v-3.67c0-5.17 4.2-9.37 9.37-9.37h8.62c.24 0 .48 0 .71.03.6.05 1.19.15 1.74.31a9.386 9.386 0 0 1 6.91 9.05c0 4.68-3.44 8.58-7.92 9.28h-.02c-.46.07-.95.11-1.43.11H71.42v17.42c0 2.04-1.31 3.82-3.25 4.44l-.36.12v2.87c0 4.27-3.17 7.81-7.27 8.39-.4.06-.8.09-1.22.09h-8.63v9.14h7.74c.24 0 .48 0 .71.03.6.05 1.2.15 1.76.31 3.97 1.09 6.89 4.73 6.89 9.04v13.04c0 4.67-3.43 8.55-7.91 9.25-.47.08-.96.12-1.46.12h-4.1c-.59 0-1.17-.06-1.73-.17-4.35-.81-7.64-4.63-7.64-9.2v-16.17l-.06-.52h-.52c-5.17 0-9.37-4.2-9.37-9.37v-1.86c0-5.17 4.2-9.37 9.43-9.37h.52v-11.81c0-5.17 4.2-9.37 9.37-9.37h11.35v-6.44H27.3c-.59 0-1.17-.06-1.73-.17a9.383 9.383 0 0 1-7.64-9.22c0-5.18 4.2-9.39 9.37-9.39h25.73c2 0 3.64-1.63 3.64-3.65v-10.16a4.34 4.34 0 0 1-.52-.09c-.18-.02-.35-.06-.52-.1-.24-.04-.48-.08-.71-.15-.58-.12-1.16-.28-1.73-.45-.18-.05-.35-.1-.52-.16v10.94c0 1.44-1.17 2.61-2.61 2.61H24.33c-5.74 0-10.41 4.67-10.41 10.43s4.67 10.43 10.41 10.43h1.13c.59.11 1.21.17 1.84.17h34.37v4.19H51.36c-5.74 0-10.41 4.67-10.41 10.41v10.78c-5.53.24-9.95 4.81-9.95 10.4v1.86c0 5.57 4.4 10.12 9.95 10.39v15.67c0 5.73 4.67 10.41 10.41 10.41h1.13c.59.11 1.21.17 1.84.17h4.1c5.74 0 10.41-4.67 10.41-10.41v-13.04c0-5.74-4.67-10.42-10.41-10.42h-1.12c-.59-.11-1.22-.17-1.85-.17h-3.74v-6.89h7.59c5.25 0 9.53-4.28 9.53-9.53v-2.12a5.684 5.684 0 0 0 3.61-5.31v-16.38h11.22c5.74 0 10.41-4.67 10.41-10.43s-4.67-10.43-10.41-10.43z" id="path28"/><path class="cls-6" d="M63.44 110.63h-.17c.05.15.1.31.17.45z" id="path30"/><path class="cls-6" d="M50.69 209.18c0 .94.35 1.79.95 2.43.18.19.37.37.58.52.31.23.66.41 1.04.52.33.11.7.17 1.08.17h4.1c2 0 3.64-1.63 3.64-3.64v-13.04c0-2.01-1.63-3.65-3.64-3.65H50.7v16.69zm1.04-15.65h4.65c.99.36 1.7 1.32 1.7 2.43v13.05c0 1.43-1.17 2.6-2.61 2.6h-2.06a2.61 2.61 0 0 1-1.68-2.43z" id="path32"/><path class="cls-6" d="M42 178.53c-.19.17-.37.35-.52.56-.22.29-.4.62-.52.97-.14.38-.21.79-.21 1.22v1.86c0 .43.07.83.21 1.21.12.35.3.69.52.97.16.2.32.39.52.55.65.57 1.5.91 2.45.91h.52v-8.62l-.06-.52h-.52c-.91 0-1.74.33-2.38.9z" id="path34"/><path class="cls-6" d="M87.31 134.91c0-2.02-1.63-3.65-3.65-3.65h-8.62c-.55 0-1.08.12-1.54.34-.3.13-.57.31-.81.52-.8.66-1.3 1.66-1.3 2.77v3.67h12.26c2.01 0 3.65-1.64 3.65-3.65zm-12.26-2.62h6.55c1 .37 1.71 1.34 1.71 2.46 0 1.45-1.17 2.62-2.61 2.62h-8.25v-2.47c0-1.44 1.17-2.61 2.61-2.61z" id="path36"/><path class="cls-6" d="M52.78 156.81c-.3.13-.57.31-.81.52-.79.66-1.29 1.66-1.29 2.77v11.81h8.63c1.52 0 2.75-1.24 2.75-2.76v-3.82c0-2.04 1.31-3.83 3.26-4.45l.36-.11v-4.3H54.33c-.56 0-1.09.12-1.55.35zm1.55.69h7.35v2.35a5.694 5.694 0 0 0-3.61 5.31v3.82c0 .95-.78 1.73-1.73 1.73h-4.62v-10.6c0-1.44 1.17-2.61 2.61-2.61z" id="path38"/></g><path id="greens" class="cls-2" d="M135.423 31.985c-1.334 2.623-2.414 6.403-3.175 10.305a.572.572 0 0 1-1.135-.132c.11-2.612.188-5.026.022-6.779-.077-.881-.21-1.554-.396-1.972-.188-.43-.342-.452-.408-.452h-.078c-.253-.033-.518.044-.793.286-.298.254-.595.684-.87 1.312-.563 1.245-.97 3.119-1.158 5.411-.375 4.442.088 10.35 1.708 16.07l.794-.573a.567.567 0 0 1 .628-.022.566.566 0 0 1 .265.573c-.1.661-.166 1.333-.199 2.017h3.23c.154-2.017 1.146-4.817 2.557-7.583 1.499-2.965 3.527-5.985 5.665-8.068.154-.154.21-.342.187-.452 0-.055-.022-.077-.033-.088 0 0-.033-.033-.1-.044-1.245-.21-2.898.353-4.617 1.708a.548.548 0 0 1-.695 0 .566.566 0 0 1-.187-.672c1.4-3.428 2.711-6.767 3.34-9.423.308-1.334.44-2.436.352-3.263-.088-.793-.375-1.245-.804-1.466-.695-.231-1.345-.077-2.04.463-.716.562-1.421 1.543-2.093 2.855zm1.388-3.759c.926-.738 2.006-1.036 3.164-.628.022 0 .044.011.066.022.925.452 1.344 1.345 1.466 2.38.11 1.026-.045 2.282-.375 3.649-.54 2.292-1.565 5.037-2.69 7.87 1.345-.739 2.712-1.08 3.924-.882a1.26 1.26 0 0 1 1.08 1.135c.055.496-.143 1.036-.529 1.41-2.017 1.963-3.979 4.872-5.444 7.76-1.477 2.91-2.403 5.71-2.447 7.484a.748.748 0 0 1-.75.738h-4.023a.748.748 0 0 1-.749-.771c.011-.42.044-.838.077-1.257l-.198.143a.753.753 0 0 1-1.157-.396c-1.797-6.018-2.304-12.29-1.907-17.018.198-2.358.617-4.375 1.256-5.786.32-.706.695-1.3 1.169-1.709.473-.407 1.036-.639 1.664-.562.727.022 1.168.562 1.422 1.147.253.595.407 1.41.485 2.325.044.485.066 1.014.088 1.576.584-2.017 1.267-3.868 2.028-5.378.705-1.378 1.499-2.524 2.402-3.24z"/><path id="ring" class="cls-4" d="M131.73 94.125c1.984 0 3.66-1.676 3.66-3.836s-1.676-3.835-3.66-3.835c-1.983 0-3.659 1.675-3.659 3.835s1.676 3.836 3.66 3.836z"/><path id="ring-2" class="cls-1" d="M139.368 90.278c0 4.464-3.46 8.002-7.638 8.002-4.177 0-7.638-3.538-7.638-8.002s3.461-8.002 7.638-8.002c4.178 0 7.638 3.538 7.638 8.002zm-7.638 4.982c2.657 0 4.806-2.238 4.806-4.982s-2.15-4.982-4.806-4.982-4.805 2.238-4.805 4.982 2.15 4.982 4.805 4.982z"/><path id="ring-3" class="cls-1" d="M131.73 102.523c6.437 0 11.738-5.434 11.738-12.234s-5.29-12.234-11.738-12.234c-6.447 0-11.738 5.434-11.738 12.234s5.29 12.234 11.738 12.234zm0-3.086c4.85 0 8.785-4.1 8.785-9.148s-3.935-9.148-8.785-9.148-8.784 4.1-8.784 9.148 3.935 9.148 8.784 9.148z"/><path id="ring-4" class="cls-1" d="M147.998 90.278c0 9.413-7.318 16.973-16.268 16.973-8.95 0-16.268-7.55-16.268-16.973 0-9.423 7.33-16.973 16.268-16.973 8.939 0 16.268 7.55 16.268 16.973zm-3.383 0c0 7.385-5.765 13.38-12.885 13.38s-12.884-5.995-12.884-13.38c0-7.384 5.764-13.38 12.884-13.38s12.885 5.996 12.885 13.38z"/><path id="ring-5" class="cls-1" d="M131.73 68.51c-11.473 0-20.841 9.7-20.841 21.78 0 10.128 6.601 18.593 15.507 21.05.21.066.408.11.617.155.75.198 1.5.33 2.282.419.44.066.892.099 1.344.12.199 0 .375.023.573.023h.53c.727 0 1.454-.044 2.17-.121.2 0 .375-.045.574-.067 10.195-1.388 18.12-10.492 18.12-21.58 0-12.069-9.38-21.779-20.854-21.779zm0 39.888c-9.61 0-17.414-8.112-17.414-18.12 0-10.008 7.804-18.12 17.414-18.12 9.611 0 17.415 8.112 17.415 18.12 0 10.008-7.793 18.12-17.415 18.12z"/><path id="body" class="cls-1" d="M142.928 63.264c-1.708-1.157-3.405-2.403-4.629-3.505-.992-1.146-2.469-3.02-2.347-5.345.066-1.18.099-1.907.143-2.392.022-.187-.463-.562-.64-.485-1.796.893-3.614 1.003-7.13 1.014-.1 0-.177.077-.177.187.089 2.095-1.025 5.92-2.524 7.253-1.664 1.256-3.35 2.26-5.092 3.262-9.313 4.63-15.794 14.88-15.794 26.783 0 8.762 3.516 16.631 9.082 22.02 2.932 2.844 6.117 4.222 9.93 5.335.188.066.375.11.574.177.187.055.375.099.573.154.683.187 1.389.364 2.116.551.188.055.375.088.573.143.188.055.375.088.573.144.089.022.199.055.287.066.496.132 1.014.253 1.543.385 1.08.287 2.226.331 3.34.11.055 0 .088-.021.143-.032.143-.034.286-.067.43-.089.198-.044.385-.077.573-.12 6.613-1.423 10.933-2.756 15.143-6.834 5.566-5.39 9.082-13.26 9.082-22.022 0-11.88-6.458-22.109-15.75-26.76zm-8.464 49.763a4.783 4.783 0 0 1-.573.066c-.188.022-.375.044-.573.044-.519.055-1.059.066-1.599.066-1.212 0-2.413-.1-3.582-.309-.187-.033-.374-.066-.573-.11-.187-.033-.375-.066-.573-.121-.264-.055-.54-.11-.804-.198a21.232 21.232 0 0 1-2.447-.827c-8.2-3.318-14.02-11.639-14.02-21.36 0-12.653 9.854-22.914 22-22.914 12.145 0 21.999 10.261 21.999 22.914 0 11.694-8.388 21.349-19.255 22.749z"/><path id="greens-2" class="cls-2" d="M57.996 32.106c-1.334 2.612-2.403 6.381-3.163 10.272a.572.572 0 0 1-1.136-.132c.11-2.601.188-5.004.022-6.756-.077-.882-.209-1.543-.396-1.973-.188-.43-.342-.452-.408-.452h-.077c-.254-.033-.518.044-.794.286-.298.254-.595.684-.87 1.312-.552 1.245-.96 3.108-1.158 5.4-.286 3.461-.077 7.815.805 12.268 0 0 1.311-.342 1.444-.044l.187-.177c.187-.132.452.055.65.177.199.12-.264-.034.882-.177-.1.65.551-.683.507 0h1.025c1.025-.297 1.157-.297 2.843-.297.199-.43.408-.871.629-1.3 1.499-2.955 3.516-5.964 5.654-8.047a.6.6 0 0 0 .187-.452c0-.055-.022-.077-.033-.088 0 0-.033-.033-.1-.044-1.245-.21-2.887.353-4.606 1.709a.548.548 0 0 1-.694 0 .566.566 0 0 1-.188-.673c1.4-3.417 2.7-6.745 3.329-9.39.308-1.323.44-2.425.352-3.252-.088-.793-.374-1.245-.793-1.465-.684-.232-1.345-.078-2.028.451-.717.562-1.422 1.532-2.083 2.855zm1.377-3.747c.926-.728 2.006-1.036 3.153-.629.022 0 .044.011.066.022.926.452 1.344 1.345 1.455 2.381.11 1.025-.044 2.27-.375 3.637-.54 2.282-1.554 5.026-2.69 7.837 1.345-.739 2.7-1.08 3.913-.882a1.27 1.27 0 0 1 1.08 1.124c.056.496-.143 1.036-.529 1.41-2.017 1.963-3.967 4.85-5.433 7.738-.22.43-.42.849-.606 1.268-.805-.177-1.323-.728-2.183-.728a.739.739 0 0 1-.75.728h-4.011c-.43 0-.739.308-.728-.11.012-.42-.33.572-.297.154l-.198.143a.741.741 0 0 1-1.147-.397c.077.254-.33.694-.397.375-.881-4.53-1.102-8.95-.804-12.488.198-2.347.617-4.353 1.256-5.764.32-.705.695-1.3 1.158-1.697.463-.408 1.036-.64 1.653-.562.727.022 1.168.562 1.41 1.146.254.595.397 1.41.486 2.314.044.485.066 1.014.088 1.565.584-2.005 1.256-3.857 2.028-5.367.694-1.378 1.488-2.513 2.402-3.23z"/><path id="ring-6" class="cls-4" d="M57.786 57.974c.089-.022.177-.055.265-.077v-.133c.22 1.334.705 2.723 1.378 3.78 1.234 1.533 3.119 2.767 5.753 4.024.837.33 1.642.694 2.436 1.09.033.012.055.034.088.045 8.927 4.508 14.967 13.204 14.967 23.19 0 13.347-10.801 24.39-24.854 26.198a64.68 64.68 0 0 1-1.708-4.541c12.4-.849 22.176-10.394 22.176-22.054 0-11.661-10.537-21.933-23.598-22.11a66.19 66.19 0 0 1 3.108-9.401z"/><path id="ring-7" class="cls-4" d="M55.747 110.426c12.014-.673 21.393-9.865 21.393-20.93 0-11.066-10.084-20.93-22.737-20.975a81.885 81.885 0 0 0-.739 3.505h.65c10.471 0 18.958 7.826 18.958 17.48 0 9.656-8.255 17.26-18.517 17.47.298 1.18.629 2.325.981 3.46z"/><path id="ring-8" class="cls-4" d="M54.48 105.83c9.853-.078 17.656-7.451 17.656-16.334 0-8.884-7.891-16.334-17.821-16.334-.287 0-.574 0-.86.022a67.388 67.388 0 0 0-.507 3.471c.452-.044.904-.055 1.367-.055 7.748 0 14.03 5.776 14.03 12.907 0 7.13-6.282 12.906-14.03 12.906h-.585c.22 1.168.463 2.314.739 3.439z"/><path id="ring-9" class="cls-4" d="M53.532 101.234c.265.01.529.022.794.022 7.208 0 12.884-5.357 12.884-11.772 0-6.414-5.676-11.77-12.884-11.77-.507 0-1.014.021-1.5.077-.11.991-.198 1.994-.275 3.02.573-.1 1.168-.155 1.775-.155 5.279 0 9.566 3.957 9.566 8.828 0 4.872-4.276 8.829-9.566 8.829-.43 0-.85-.022-1.257-.077.132 1.014.287 2.006.463 2.997z"/><path id="ring-10" class="cls-4" d="M52.915 97.067c.452.067.926.11 1.4.11 4.739 0 8.42-3.526 8.42-7.681 0-4.156-3.681-7.683-8.42-7.683-.64 0-1.257.067-1.852.188a91.1 91.1 0 0 0-.121 3.042 5.562 5.562 0 0 1 1.984-.353c2.887 0 5.235 2.15 5.235 4.806S57.213 94.3 54.326 94.3c-.596 0-1.18-.088-1.709-.265.088 1.025.188 2.028.309 3.031z"/><path id="ring-11" class="cls-4" d="M52.518 92.791a4.38 4.38 0 0 0 1.808.375c2.347 0 4.089-1.73 4.089-3.67s-1.742-3.67-4.09-3.67a4.47 4.47 0 0 0-1.994.462v.717c0 1.95.066 3.88.198 5.775z"/><path id="onion_outline" class="cls-1" d="m58.657 51.162-10.845.772c-.64.055-1.025.771-.739 1.356.695 1.432 1.51 3.537 1.632 5.554.143 2.337-5.346 5.555-9.292 7.682-9.456 4.552-15.87 13.38-15.87 23.543 0 11.76 8.607 21.756 20.577 25.36.187.067.374.11.573.166.187.066.374.11.573.165.694.187 1.4.353 2.116.485.198.044.375.066.573.1.187.043.375.065.573.098 1.356.21 2.756.353 4.188.408.717-.044 1.422-.11 2.128-.21.198-.021.385-.043.573-.076.198-.022.385-.055.573-.088.231-.034.474-.078.694-.122.375-.077.76-.165 1.124-.242-.143-.364-.297-.717-.44-1.07l-.199-.495c-.132-.342-.253-.684-.386-1.036-.231-.64-.463-1.29-.683-1.951-.121-.364-.231-.739-.353-1.113a39.141 39.141 0 0 1-.518-1.72c-.165-.573-.32-1.168-.474-1.752-1.576-6.128-2.446-12.862-2.446-19.95 0-5.224.474-10.25 1.344-14.989 0-.033 0-.066.022-.077.088-.562.21-1.113.33-1.664v-.033c.111-.53.221-1.058.354-1.565 0-.066.022-.11.044-.166.077-.374.176-.76.275-1.135.21-.848.441-1.686.684-2.513.11-.385.22-.771.352-1.157.243-.794.496-1.587.772-2.348.077-.231.165-.473.242-.694l.43-1.135c.199-.518.408-1.047.628-1.554.089-.033.177-.055.265-.077v-.077c-.088-1.654.694-3.737 1.477-5.29.32-.64-.166-1.412-.87-1.357zm-1.741 5.952-.188.43c-3.505 8.354-5.566 18.527-5.566 29.472 0 9.93 1.687 19.2 4.63 27.08.055.165.11.341.187.496.077.22.165.452.253.672-.077.022-.176.033-.253.044-.199.044-.375.066-.573.1-.199.032-.375.065-.573.077-.706.099-1.422.176-2.15.22a32.123 32.123 0 0 1-4.166-.43 4.791 4.791 0 0 1-.573-.099 4.776 4.776 0 0 1-.573-.11 6.17 6.17 0 0 1-.783-.166 23.07 23.07 0 0 1-1.906-.496 8.697 8.697 0 0 1-.573-.176c-11.397-3.57-19.443-13.127-19.443-24.181 0-9.655 6.106-18.12 15.232-22.517h.022l.022-.023c1.984-1.058 4.409-2.435 6.327-3.846.948-.705 1.83-1.455 2.469-2.215.617-.728 1.168-1.654 1.09-2.69-.132-2.105-.914-4.243-1.62-5.72l10.13-.727c-.64 1.344-1.323 3.14-1.433 4.783z"/><path id="greens-3" class="cls-2" d="M214.205 32.106c-1.333 2.612-2.414 6.381-3.163 10.272a.572.572 0 0 1-1.135-.132c.11-2.601.187-5.004.022-6.756-.077-.882-.21-1.543-.397-1.973-.187-.43-.342-.452-.408-.452h-.077c-.254-.033-.518.044-.794.286-.297.254-.595.684-.87 1.312-.551 1.245-.96 3.108-1.158 5.4-.286 3.461-.077 7.815.805 12.268 0 0 1.312-.342 1.444-.044l.187-.177c.188-.132.452.055.65.177.199.12-.264-.034.882-.177-.099.65.551-.683.507 0h1.025c1.025-.297 1.157-.297 2.833-.297.198-.43.408-.871.628-1.3 1.499-2.955 3.516-5.964 5.654-8.047a.599.599 0 0 0 .187-.452c0-.055-.022-.077-.033-.088 0 0-.033-.033-.099-.044-1.245-.21-2.887.353-4.596 1.709a.548.548 0 0 1-.694 0 .566.566 0 0 1-.188-.673c1.4-3.417 2.7-6.745 3.329-9.39.309-1.323.44-2.425.353-3.252-.089-.793-.375-1.245-.794-1.465-.683-.232-1.345-.078-2.028.451-.716.562-1.422 1.532-2.083 2.855zm1.378-3.747c.926-.728 2.006-1.036 3.152-.629.022 0 .044.011.066.022.926.452 1.345 1.345 1.455 2.381.11 1.025-.044 2.27-.375 3.637-.54 2.282-1.554 5.026-2.689 7.837 1.345-.739 2.7-1.08 3.913-.882a1.27 1.27 0 0 1 1.08 1.124c.055.496-.143 1.036-.53 1.41-2.016 1.963-3.967 4.85-5.433 7.738-.22.43-.419.849-.606 1.268-.805-.177-1.323-.728-2.182-.728a.739.739 0 0 1-.75.728h-4.012c-.43 0-.738.308-.727-.11.01-.42-.33.572-.298.154l-.198.143a.741.741 0 0 1-1.146-.397c.077.254-.331.694-.397.375-.882-4.53-1.102-8.95-.805-12.488.199-2.347.617-4.353 1.257-5.764.32-.705.694-1.3 1.157-1.697.474-.408 1.036-.64 1.653-.562.728.022 1.169.562 1.411 1.146.254.595.397 1.41.485 2.314.044.485.066 1.014.088 1.565.584-2.005 1.257-3.857 2.028-5.367.695-1.378 1.5-2.513 2.403-3.23z"/><path id="ring-12" class="cls-4" d="M213.996 57.974c.088-.022.176-.055.264-.077v-.133c.22 1.334.706 2.723 1.378 3.78 1.234 1.533 3.12 2.767 5.753 4.024.838.33 1.642.694 2.436 1.09.033.012.055.034.077.045 8.928 4.508 14.968 13.204 14.968 23.19 0 13.347-10.802 24.39-24.854 26.198a64.682 64.682 0 0 1-1.709-4.541c12.4-.849 22.176-10.394 22.176-22.054 0-11.661-10.537-21.933-23.597-22.11a66.19 66.19 0 0 1 3.108-9.401z"/><path id="ring-13" class="cls-4" d="M211.946 110.426c12.013-.673 21.393-9.865 21.393-20.93 0-11.066-10.085-20.93-22.738-20.975a81.896 81.896 0 0 0-.738 3.505h.65c10.47 0 18.957 7.826 18.957 17.48 0 9.656-8.255 17.26-18.516 17.47.297 1.18.628 2.325.98 3.46z"/><path id="ring-14" class="cls-4" d="M210.678 105.83c9.854-.078 17.657-7.451 17.657-16.334 0-8.884-7.892-16.334-17.822-16.334-.287 0-.573 0-.86.022a67.386 67.386 0 0 0-.507 3.471c.452-.044.904-.055 1.367-.055 7.748 0 14.03 5.776 14.03 12.907 0 7.13-6.282 12.906-14.03 12.906h-.584c.22 1.168.463 2.314.738 3.439z"/><path id="ring-15" class="cls-4" d="M209.73 101.234c.265.01.53.022.794.022 7.208 0 12.884-5.357 12.884-11.772 0-6.414-5.676-11.77-12.884-11.77-.507 0-1.014.021-1.499.077-.11.991-.198 1.994-.276 3.02.574-.1 1.169-.155 1.775-.155 5.28 0 9.567 3.957 9.567 8.828 0 4.872-4.277 8.829-9.567 8.829-.43 0-.849-.022-1.257-.077.133 1.014.287 2.006.463 2.997z"/><path id="ring-16" class="cls-4" d="M209.113 97.067c.452.067.926.11 1.4.11 4.74 0 8.42-3.526 8.42-7.681 0-4.156-3.68-7.683-8.42-7.683-.64 0-1.257.067-1.852.188a91.106 91.106 0 0 0-.12 3.042 5.562 5.562 0 0 1 1.983-.353c2.888 0 5.235 2.15 5.235 4.806s-2.336 4.805-5.235 4.805c-.595 0-1.18-.088-1.708-.265.088 1.025.187 2.028.308 3.031z"/><path id="ring-17" class="cls-4" d="M208.716 92.791a4.38 4.38 0 0 0 1.808.375c2.348 0 4.089-1.73 4.089-3.67s-1.741-3.67-4.09-3.67a4.47 4.47 0 0 0-1.994.462v.717c0 1.95.066 3.88.198 5.775z"/><path id="onion_outline-2" class="cls-1" d="m214.855 51.162-10.845.772c-.64.055-1.025.771-.738 1.356.694 1.432 1.51 3.537 1.63 5.554.144 2.337-5.345 5.555-9.29 7.682-9.457 4.552-15.871 13.38-15.871 23.543 0 11.782 8.652 21.79 20.654 25.393.187.056.375.11.573.155.199.066.386.11.584.165.695.187 1.411.353 2.128.485.198.044.385.066.584.11.187.033.374.066.573.088 1.333.21 2.69.342 4.078.386a28.1 28.1 0 0 0 2.16-.21c.198-.021.375-.054.573-.076.199-.033.375-.066.573-.1.21-.033.441-.066.65-.11.386-.077.772-.165 1.136-.242-.144-.364-.298-.717-.441-1.07l-.198-.495c-.133-.342-.254-.684-.386-1.036-.232-.64-.463-1.29-.684-1.951a8.388 8.388 0 0 1-.176-.562 10.666 10.666 0 0 1-.176-.551c-.066-.21-.133-.408-.199-.629-.11-.352-.22-.727-.33-1.09-.166-.574-.32-1.169-.474-1.753-1.576-6.128-2.447-12.862-2.447-19.95 0-5.223.474-10.25 1.345-14.989 0-.033 0-.066.022-.077.088-.562.209-1.113.33-1.664v-.033c.066-.342.144-.661.22-1.003.056-.243.1-.496.166-.727.077-.375.176-.761.276-1.136.209-.848.44-1.686.683-2.513.11-.385.22-.771.353-1.157.242-.793.496-1.587.771-2.348.077-.231.165-.473.243-.694l.43-1.135c.198-.518.407-1.047.628-1.554.088-.033.176-.055.264-.077v-.077c-.088-1.654.695-3.737 1.477-5.29.32-.64-.165-1.412-.87-1.356zm-1.741 5.952-.187.43c-3.505 8.354-5.566 18.527-5.566 29.472 0 8.189 1.146 15.937 3.196 22.814.055.199.11.375.176.563.055.198.11.385.188.573 0 .066.022.12.055.187.187.606.386 1.201.606 1.797.187.55.386 1.102.606 1.642.077.22.166.452.254.672-.077 0-.166.033-.243.044-.198.044-.375.066-.573.1-.198.032-.375.054-.573.077-.705.099-1.433.176-2.16.22a34.993 34.993 0 0 1-4.078-.408 59.989 59.989 0 0 1-.573-.099 8.801 8.801 0 0 1-.574-.11 22.352 22.352 0 0 1-2.138-.496 3.871 3.871 0 0 1-.584-.165 4.903 4.903 0 0 1-.573-.166c-11.43-3.549-19.508-13.127-19.508-24.192 0-9.655 6.106-18.12 15.232-22.517h.022l.022-.022c1.984-1.059 4.408-2.436 6.326-3.847.948-.705 1.83-1.455 2.469-2.215.617-.728 1.157-1.654 1.091-2.69-.132-2.105-.915-4.243-1.62-5.72l10.129-.727c-.64 1.344-1.323 3.14-1.433 4.783z"/><path id="highlight" class="cls-3" d="M201.453 69.348a1.11 1.11 0 0 1 0 1.686l-.176.144s-.088.077-.121.12l-.144.177a1.11 1.11 0 0 1-1.686 0l-.154-.176s-.077-.088-.122-.121l-.176-.144a1.11 1.11 0 0 1 0-1.686l.176-.143s.089-.077.122-.121l.154-.177a1.11 1.11 0 0 1 1.686 0l.144.177s.077.088.12.12l.177.155z"/><path id="highlight-2" class="cls-3" d="M197.827 73.845a2.71 2.71 0 0 1 0 4.122l-.43.364a1.9 1.9 0 0 0-.297.297l-.364.43a2.71 2.71 0 0 1-4.122 0l-.364-.43a2.53 2.53 0 0 0-.297-.297l-.43-.364a2.71 2.71 0 0 1 0-4.122l.43-.364a1.9 1.9 0 0 0 .297-.297l.364-.43a2.71 2.71 0 0 1 4.122 0l.364.43c.088.11.187.209.297.297z"/><path id="highlight-3" class="cls-3" d="M41.1 74.65c-.177.12-.353.253-.518.374a28.337 28.337 0 0 0-2.006 1.642 3.451 3.451 0 0 1-.232.188c-.882.617-2.083.595-2.876-.155-.871-.815-.915-2.193-.033-2.997.088-.078.165-.155.253-.232a29.597 29.597 0 0 1 2.237-1.84 31.568 31.568 0 0 1 3.207-2.105c.067-.034.133-.078.2-.11a.515.515 0 0 1 .11-.056c1.046-.584 2.336-.11 2.843.97.463.992.11 2.15-.75 2.788-.077.056-.165.11-.253.166-.75.43-1.477.892-2.182 1.388z"/><circle id="highlight-4" class="cls-3" cx="33.164" cy="79.444" r="2.182"/><g id="star" transform="translate(-13.931 -7.847) scale(1.10216)"><path class="cls-6" d="M226.79 31.14c0 .27-.06.52-.15.75-.07.17-.17.29-.25.43l.84-.82c.37-.35.6-.84.6-1.39v-6.92l-1.04 1.04z" id="path68"/><path class="cls-6" d="m214.08 18.17-.19.2-.75.75c.14-.11.3-.21.47-.29.22-.09.48-.15.74-.15h7.34l1.04-1.04h-7.34c-.51 0-.97.19-1.31.52z" id="path70"/><path class="cls-6" d="M236.44 17.65h-7.35l-1.26-1.26V9.05c0-1.07-.86-1.93-1.92-1.93-.55 0-1.04.22-1.38.59l-.13.14-.6.63c.1-.06.21-.12.32-.18.22-.09.45-.14.7-.15h.07c.27 0 .52.06.75.17a1.934 1.934 0 0 1 1.13 1.76v7.35l1.27 1.26h7.34c.23 0 .46.05.67.12.48.18.87.55 1.09 1.02.07.17.13.33.15.53 0 .08.02.16.02.23v.02c0 .27-.06.52-.14.74-.06.17-.15.3-.24.42l.72-.7.08-.07c.38-.35.62-.85.62-1.41 0-1.07-.86-1.93-1.92-1.93z" id="path72"/><path class="cls-5" d="M236.17 20.61c0 .11-.03.22-.07.32-.11.27-.38.45-.7.45h-7.39l-1.34 1.34-1.03 1.03v7.39a.75.75 0 0 1-.52.72c-.07.03-.16.05-.25.05a.77.77 0 0 1-.77-.77v-7.39l-.12-.12-2.11-2.12-.12-.12h-7.4a.77.77 0 0 1-.77-.77c0-.08.02-.17.05-.24.07-.22.24-.39.46-.47.08-.03.17-.05.26-.05h7.82l1.03-1.04.9-.91v-7.82c0-.31.19-.58.46-.7.09-.05.19-.06.31-.06.09 0 .19.02.27.05.3.11.5.39.5.71v7.82l1.94 1.95h7.82c.33 0 .61.2.71.49.04.08.06.18.06.27z" id="path74"/></g><g id="star-2" transform="translate(-13.931 -7.847) scale(1.10216)"><path class="cls-6" d="M240.27 50.31c0 .19-.04.37-.11.54-.05.12-.12.21-.18.3l.6-.58c.27-.25.43-.6.43-.99v-4.94l-.74.74v4.94z" id="path77"/><path class="cls-6" d="m231.18 41.05-.14.15-.54.54c.1-.08.21-.15.34-.21.16-.07.34-.11.53-.11h5.24l.74-.74h-5.24c-.36 0-.7.14-.93.37z" id="path79"/><path class="cls-6" d="M247.16 40.68h-5.25l-.9-.9v-5.24c0-.76-.62-1.38-1.37-1.38-.39 0-.74.16-.99.42l-.09.1-.43.45c.07-.05.15-.09.23-.13.16-.07.32-.1.5-.11h.05a1.35 1.35 0 0 1 1.26.9c.05.15.09.31.09.48v5.25l.91.9h5.24c.17 0 .33.03.48.09.34.13.62.39.78.73.05.12.09.24.11.38 0 .06.01.11.01.17 0 .21-.04.38-.1.54-.05.12-.11.21-.17.3l.52-.5.06-.05a1.38 1.38 0 0 0-.93-2.39z" id="path81"/><path class="cls-5" d="M246.97 42.79c0 .08-.02.16-.05.23-.08.19-.27.32-.5.32h-5.28l-.95.95-.74.74v5.28c0 .07-.01.13-.03.19a.54.54 0 0 1-.34.32.555.555 0 0 1-.73-.52v-5.28l-.09-.09-1.51-1.52-.09-.09h-5.29c-.3 0-.55-.25-.55-.55 0-.06.01-.12.03-.17a.531.531 0 0 1 .52-.37h5.59l.74-.74.64-.65v-5.59a.563.563 0 0 1 .74-.52c.21.08.36.28.36.51v5.59l1.39 1.39h5.59c.24 0 .44.15.51.35.03.06.04.13.04.19z" id="path83"/></g><g id="star-3" transform="translate(-13.931 -7.847) scale(1.10216)"><path class="cls-6" d="M126.92 190.52c0 .21.04.4.12.59.06.13.13.22.2.33l-.66-.64a1.48 1.48 0 0 1-.47-1.08v-5.39l.81.81z" id="path86"/><path class="cls-6" d="m136.82 180.42.15.16.59.59c-.11-.09-.23-.17-.37-.22a1.58 1.58 0 0 0-.58-.12h-5.71l-.81-.81h5.71c.4 0 .76.15 1.02.4z" id="path88"/><path class="cls-6" d="M119.41 180.01h5.72l.98-.98v-5.71c0-.83.67-1.5 1.5-1.5.43 0 .81.17 1.08.46l.1.11.47.49c-.08-.05-.17-.09-.25-.14-.17-.07-.35-.11-.55-.12h-.06c-.21 0-.4.05-.59.13-.36.17-.65.47-.79.85-.06.16-.09.34-.09.52v5.72l-.99.98h-5.71c-.18 0-.36.04-.52.09-.38.14-.68.43-.85.79-.06.13-.1.26-.12.41 0 .07-.01.12-.01.18 0 .22.04.42.11.59.05.13.12.23.19.33l-.56-.55-.06-.06c-.3-.27-.48-.66-.48-1.1 0-.83.67-1.5 1.5-1.5z" id="path90"/><path class="cls-5" d="M119.62 182.32c0 .09.02.17.06.25.09.21.3.35.54.35h5.76l1.04 1.04.8.8v5.76a.584.584 0 0 0 .41.56c.06.02.12.04.2.04.33 0 .6-.27.6-.6v-5.76l.09-.09 1.65-1.65.09-.09h5.76c.33 0 .6-.27.6-.6 0-.07-.01-.13-.04-.19a.626.626 0 0 0-.36-.37c-.07-.02-.13-.04-.2-.04h-6.09l-.8-.81-.7-.71v-6.09c0-.24-.15-.45-.36-.54a.47.47 0 0 0-.24-.05c-.07 0-.14.01-.21.04-.23.09-.39.3-.39.56v6.09l-1.51 1.52h-6.09a.592.592 0 0 0-.6.59z" id="path92"/></g><g id="star-4" transform="translate(-13.931 -7.847) scale(1.10216)"><path class="cls-6" d="M22.91 73.25c0 .24.05.46.13.67.07.15.15.26.22.38l-.75-.72c-.33-.31-.53-.75-.53-1.23v-6.14l.92.92v6.13z" id="path95"/><path class="cls-6" d="m34.19 61.75.17.18.67.67c-.12-.1-.26-.19-.42-.26-.2-.08-.43-.13-.66-.13h-6.51l-.92-.92h6.51c.45 0 .86.17 1.16.46z" id="path97"/><path class="cls-6" d="M14.36 61.29h6.52L22 60.17v-6.51c0-.95.77-1.71 1.7-1.71.49 0 .92.2 1.23.53l.12.12.53.56c-.09-.06-.19-.11-.29-.16-.2-.08-.4-.12-.63-.13h-.07c-.24 0-.46.06-.67.15-.41.19-.74.53-.9.96-.07.18-.11.39-.11.59v6.52l-1.13 1.12h-6.51c-.21 0-.41.04-.59.11-.43.16-.77.49-.96.9-.07.15-.12.3-.13.47 0 .07-.02.14-.02.21v.02c0 .24.05.46.12.66.06.15.13.26.21.37l-.64-.63-.07-.07a1.707 1.707 0 0 1 1.15-2.96z" id="path99"/><path class="cls-5" d="M14.6 63.91c0 .1.02.2.07.28.1.24.34.4.62.4h6.56l1.18 1.18.91.91v6.56c0 .08.02.16.04.24.07.19.22.34.42.4.07.02.14.04.22.04.37 0 .68-.3.68-.68v-6.56l.11-.11 1.88-1.88.11-.11h6.56c.37 0 .68-.3.68-.68 0-.07-.02-.15-.04-.21a.66.66 0 0 0-.41-.42.852.852 0 0 0-.23-.04h-6.93l-.91-.92-.8-.81v-6.93a.693.693 0 0 0-.68-.68c-.08 0-.16.02-.24.04-.26.1-.44.35-.44.63v6.93l-1.72 1.73h-6.93c-.3 0-.54.18-.63.44-.03.07-.05.16-.05.24z" id="path101"/></g></svg>